<?xml version="1.0" encoding="UTF-8"?>
<svg id="a" xmlns="http://www.w3.org/2000/svg" version="1.1" viewBox="0 0 221.1 198.9">
  <!-- Generator: Adobe Illustrator 30.0.0, SVG Export Plug-In . SVG Version: 2.1.1 Build 123)  -->
  <defs>
    <style>
      .st0 {
        fill: #ff2449;
      }
    </style>
  </defs>
  <path class="st0" d="M28.8,1.2C19.2,7,.2,28.8,0,34.5v9.5c0,12,11.2,22.6,21.4,22.6s22.4-10.1,22.4-22.2c0,12,9.8,22.2,22.1,22.2s21.8-10.1,21.8-22.2c0,12,10.5,22.2,22.7,22.2h.2c12.2,0,22.7-10.1,22.7-22.2,0,12,9.5,22.2,21.8,22.2s22.1-10.1,22.1-22.2c0,12,10.2,22.2,22.4,22.2s21.4-10.6,21.4-22.6v-9.5c-.2-5.7-19.2-27.6-28.8-33.3C162.3.2,141.5,0,110.5,0,79.6,0,37.4.5,28.8,1.2c0,0,0,0,0,0ZM87.6,60.9c-1.2,2-2.6,3.9-4.3,5.5-4.8,4.7-11.2,7.3-17.9,7.3-7,0-13.4-2.8-18-7.3-1.7-1.6-2.9-3.4-4.1-5.4h0c-1.2,2.1-2.8,3.8-4.5,5.4-4.8,4.7-11.3,7.3-18,7.3-.8,0-1.7-.2-2.4-.5-1,10.2-1.4,20-1.5,27.2h0c0,3.7,0,6.7,0,10.8.2,21.5-2.1,69.7,9.5,81.5,18,4.2,51.1,6.1,84.3,6.1h0c33.2,0,66.3-1.9,84.3-6.1,11.6-11.8,9.3-60,9.5-81.5,0-4.1,0-7.1,0-10.8h0c-.1-7.2-.6-17-1.6-27.2-.7.2-1.6.5-2.4.5-6.7,0-13.2-2.6-18-7.3-1.7-1.6-3.3-3.4-4.5-5.4h0c-1.2,2-2.4,3.8-4.1,5.4-4.6,4.5-11,7.3-18,7.3s-13.3-2.8-17.9-7.3c-1.7-1.6-3.1-3.5-4.3-5.5-1.2,2-2.6,3.9-4.3,5.5-4.8,4.7-11.3,7.3-18,7.3-.2,0-.5,0-.7,0h0c-.2,0-.5,0-.7,0-7,0-13.4-2.8-18-7.3-1.7-1.6-3.1-3.5-4.3-5.5h0s0,0,0,0ZM69.1,84.8h0s0,0,0,0c7.3,0,13.8,0,21.8,8.8,6.3-.7,12.9-1,19.6-1h0c6.6,0,13.2.3,19.6,1,8.1-8.8,14.5-8.8,21.9-8.8h0c3.5,0,17.3,0,26.9,27l10.3,37.1c7.7,27.6-2.5,28.3-15.1,28.3-18.7-.7-29.1-14.3-29.1-27.9-10.4,1.7-22.4,2.6-34.5,2.6h0c-12.1,0-24.2-.9-34.5-2.6,0,13.6-10.4,27.2-29.1,27.9-12.6,0-22.7-.7-15.1-28.3l10.3-37.1c9.6-27,23.4-27,26.9-27,0,0,0,0,0,0ZM110.6,106h0s-19.7,18.1-23.2,24.5l12.9-.5v11.2c0,.5,5.2.3,10.3,0h0c5.2.2,10.3.5,10.3,0v-11.2l12.9.5c-3.5-6.4-23.2-24.5-23.2-24.5h0s0,0,0,0h0s0,0,0,0Z"/>
</svg>